<svg width="409" height="40" viewBox="0 0 409 40" fill="none" xmlns="http://www.w3.org/2000/svg">
<path d="M10 0H30C35.4815 0 40 4.44444 40 10V30C40 35.4815 35.5556 40 30 40H10C4.51852 40 0 35.5556 0 30V10C0.0740741 4.51852 4.51852 0 10 0Z" fill="#7F7FC4"/>
<path d="M30.518 12.1479C30.518 9.33312 25.7032 6.88867 19.9995 6.88867C14.2958 6.88867 9.48096 9.25904 9.48096 12.1479V14.7405C9.48096 17.5553 14.2958 19.9998 19.9995 19.9998C25.7032 19.9998 30.518 17.6294 30.518 14.7405V12.1479ZM19.9995 29.185C14.2958 29.185 9.48096 26.8146 9.48096 23.9257V27.8516C9.48096 30.6664 14.2958 33.1109 19.9995 33.1109C25.7032 33.1109 30.518 30.7405 30.518 27.8516V23.9257C30.518 26.7405 25.7032 29.185 19.9995 29.185Z" fill="white"/>
<path d="M30.518 17.333C30.518 20.1478 25.7032 22.5923 19.9995 22.5923C14.2958 22.5923 9.48096 20.2219 9.48096 17.333V21.333C9.48096 24.1478 14.2958 26.5923 19.9995 26.5923C25.7032 26.5923 30.518 24.2219 30.518 21.333V17.333Z" fill="white"/>
<path d="M25.778 13.0374C25.0373 12.6671 24.5188 12.593 23.6299 12.8893C22.3706 13.3337 21.0373 13.7782 19.6299 14.2967C17.3336 15.1856 15.1855 15.1115 12.4447 14.0004C12.1484 13.8522 11.1114 13.4078 10.8892 13.3337C12.8151 13.63 14.5188 13.3337 16.1484 12.7411C17.4818 12.2967 18.8151 11.8522 20.1484 11.4078C21.5558 10.8893 21.6299 10.7411 20.4447 10.0004C20.3706 9.92632 20.2966 9.85225 20.0743 9.7041C22.5929 9.77818 24.8892 9.85225 27.2595 9.92632C27.0373 11.1115 26.8151 12.2226 26.5929 13.4819C26.1484 13.2597 25.9262 13.1115 25.778 13.0374Z" fill="#7F7FC3"/>
<path d="M55.091 30.1348H51V9.83478H55.2403V22.9522L64.4675 9.83478H68.8273V30.1348H64.587V16.5304L55.091 30.1348Z" fill="#3B5998"/>
<path d="M90.6714 30.1348H86.4012V21.613H76.9949V30.1348H72.7545V9.83478H76.9949V17.8087H86.4012V9.83478H90.6714V30.1348Z" fill="#3B5998"/>
<path d="M107.497 30.1348H103.256V28.0957C97.2244 27.5783 93.641 24.687 93.641 20C93.641 15.3435 97.2244 12.4522 103.256 11.9043V9.83478H107.497V11.9043C113.529 12.4522 117.112 15.313 117.112 20C117.112 24.687 113.529 27.5783 107.497 28.0957V30.1348ZM112.782 20C112.782 17.687 110.931 16.1957 107.497 15.7696V24.2304C110.931 23.8348 112.782 22.313 112.782 20ZM98.0008 20C98.0008 22.313 99.8223 23.8043 103.256 24.2304V15.7696C99.8223 16.1957 98.0008 17.7174 98.0008 20Z" fill="#3B5998"/>
<path d="M129.578 30.5C123.576 30.5 119.187 26.1174 119.187 20C119.187 13.8826 123.576 9.5 129.578 9.5C135.61 9.5 140 13.8826 140 20C140 26.1174 135.61 30.5 129.578 30.5ZM129.578 26.6652C133.251 26.6652 135.64 23.7739 135.64 20C135.64 16.1957 133.251 13.3348 129.578 13.3348C125.905 13.3348 123.546 16.1957 123.546 20C123.546 23.7739 125.905 26.6652 129.578 26.6652Z" fill="#3B5998"/>
<path d="M152.645 30.5C146.648 30.5 142 26.2391 142 20C142 13.7609 146.648 9.5 152.645 9.5C157.053 9.5 159.602 11.9348 161.011 14.4609L157.353 16.287C156.513 14.6435 154.714 13.3348 152.645 13.3348C149.017 13.3348 146.378 16.1652 146.378 20C146.378 23.8348 149.017 26.6652 152.645 26.6652C154.714 26.6652 156.513 25.387 157.353 23.713L161.011 25.5087C159.572 28.0348 157.053 30.5 152.645 30.5Z" fill="#7F7FC3"/>
<path d="M172.452 30.1348H168.164V13.6391H162.316V9.83478H178.269V13.6391H172.452V30.1348Z" fill="#7F7FC3"/>
<path d="M197.718 30.1348H192.86L191.63 26.6957H183.054L181.795 30.1348H176.937L184.674 9.83478H190.011L197.718 30.1348ZM190.461 22.8913L187.342 14.1565L184.224 22.8913H190.461Z" fill="#7F7FC3"/>
<path d="M203.823 30.1348H199.565V9.83478H208.92C213.268 9.83478 215.637 12.8174 215.637 16.3783C215.637 19.9087 213.238 22.9217 208.92 22.9217H203.823V30.1348ZM208.351 19.1174C210.03 19.1174 211.289 18.0522 211.289 16.3783C211.289 14.6739 210.03 13.6391 208.351 13.6391H203.823V19.1174H208.351Z" fill="#7F7FC3"/>
<path d="M227.183 30.1348H222.895V13.6391H217.047V9.83478H233V13.6391H227.183V30.1348Z" fill="#7F7FC3"/>
<path d="M255.97 9.5V11.6797H245.486V17.3056H251.028C252.006 17.3056 252.885 17.4627 253.664 17.7769C254.443 18.0911 255.102 18.5231 255.641 19.0729C256.18 19.6031 256.589 20.2315 256.869 20.958C257.148 21.6649 257.288 22.421 257.288 23.2261C257.288 24.0312 257.148 24.797 256.869 25.5236C256.589 26.2305 256.18 26.8589 255.641 27.4087C255.122 27.9389 254.473 28.3611 253.694 28.6753C252.915 28.9894 252.026 29.1465 251.028 29.1465H243V9.5H255.97ZM245.486 19.4853V26.9669H250.728C251.926 26.9669 252.885 26.6232 253.604 25.9359C254.343 25.2486 254.712 24.3454 254.712 23.2261C254.712 22.1068 254.343 21.2035 253.604 20.5162C252.885 19.8289 251.926 19.4853 250.728 19.4853H245.486Z" fill="#7F7FC3"/>
<path d="M269.537 29.1465V27.5265C268.319 28.8422 266.721 29.5 264.744 29.5C264.125 29.5 263.516 29.4018 262.917 29.2054C262.318 29.0091 261.779 28.7145 261.3 28.3218C260.82 27.9094 260.431 27.4087 260.131 26.8196C259.832 26.2305 259.682 25.553 259.682 24.7872C259.682 24.0017 259.832 23.3144 260.131 22.7253C260.431 22.1362 260.82 21.6453 261.3 21.2526C261.779 20.8598 262.318 20.5751 262.917 20.3984C263.516 20.202 264.125 20.1038 264.744 20.1038C265.743 20.1038 266.641 20.2609 267.44 20.5751C268.259 20.8893 268.958 21.3802 269.537 22.0479V19.4853C269.537 18.5231 269.188 17.7867 268.489 17.2761C267.81 16.7459 266.941 16.4809 265.883 16.4809C264.185 16.4809 262.707 17.1387 261.449 18.4543L260.401 16.9227C261.939 15.3517 263.866 14.5663 266.182 14.5663C266.941 14.5663 267.66 14.6546 268.339 14.8314C269.018 15.0081 269.607 15.2928 270.106 15.6856C270.625 16.0587 271.035 16.5496 271.334 17.1583C271.634 17.7671 271.784 18.5034 271.784 19.3675V29.1465H269.537ZM265.553 27.9094C266.352 27.9094 267.101 27.7621 267.8 27.4676C268.519 27.173 269.098 26.7312 269.537 26.1421V23.4617C269.098 22.8726 268.519 22.4308 267.8 22.1362C267.101 21.8417 266.352 21.6944 265.553 21.6944C264.495 21.6944 263.636 21.989 262.977 22.5781C262.318 23.1475 261.989 23.8937 261.989 24.8166C261.989 25.7199 262.318 26.4661 262.977 27.0552C263.636 27.6247 264.495 27.9094 265.553 27.9094Z" fill="#7F7FC3"/>
<path d="M281.409 29.5C279.951 29.5 278.673 29.2938 277.575 28.8814C276.497 28.4494 275.598 27.88 274.879 27.173L275.988 25.7592C276.666 26.3876 277.465 26.8687 278.384 27.2025C279.322 27.5167 280.331 27.6738 281.409 27.6738C282.707 27.6738 283.736 27.448 284.495 26.9963C285.273 26.5447 285.663 25.9458 285.663 25.1996C285.663 24.7675 285.543 24.4043 285.303 24.1097C285.064 23.7955 284.734 23.5501 284.315 23.3733C283.915 23.177 283.436 23.0395 282.877 22.961C282.338 22.8824 281.749 22.8432 281.11 22.8432H277.875V21.0464H281.11C281.709 21.0464 282.268 20.9973 282.787 20.8991C283.306 20.8009 283.756 20.6537 284.135 20.4573C284.534 20.2609 284.844 20.0155 285.064 19.7209C285.283 19.4264 285.393 19.0729 285.393 18.6605C285.393 18.3267 285.283 18.0223 285.064 17.7474C284.844 17.4529 284.544 17.2074 284.165 17.011C283.806 16.8147 283.366 16.6674 282.847 16.5692C282.328 16.4514 281.769 16.3925 281.17 16.3925C279.153 16.3925 277.535 17.0012 276.317 18.2187L275.149 16.8638C275.828 16.1765 276.656 15.6267 277.635 15.2143C278.614 14.8019 279.762 14.5957 281.08 14.5957C282.058 14.5957 282.947 14.6841 283.746 14.8608C284.564 15.0179 285.263 15.2634 285.842 15.5972C286.442 15.9114 286.901 16.3041 287.22 16.7754C287.56 17.2467 287.73 17.7867 287.73 18.3954C287.73 18.9256 287.6 19.3969 287.34 19.8093C287.101 20.2217 286.791 20.5751 286.412 20.8697C286.032 21.1446 285.613 21.3704 285.154 21.5471C284.694 21.7042 284.255 21.8122 283.836 21.8711C284.255 21.9104 284.704 21.9988 285.184 22.1362C285.683 22.2737 286.142 22.4897 286.561 22.7842C286.981 23.0592 287.33 23.4126 287.61 23.8446C287.889 24.257 288.029 24.7577 288.029 25.3468C288.029 25.9359 287.879 26.4858 287.58 26.9963C287.28 27.5069 286.841 27.9487 286.262 28.3218C285.703 28.6949 285.014 28.9796 284.195 29.176C283.376 29.392 282.448 29.5 281.409 29.5Z" fill="#7F7FC3"/>
<path d="M300.72 29.1465V27.5265C299.502 28.8422 297.904 29.5 295.927 29.5C295.308 29.5 294.699 29.4018 294.1 29.2054C293.501 29.0091 292.962 28.7145 292.483 28.3218C292.003 27.9094 291.614 27.4087 291.314 26.8196C291.015 26.2305 290.865 25.553 290.865 24.7872C290.865 24.0017 291.015 23.3144 291.314 22.7253C291.614 22.1362 292.003 21.6453 292.483 21.2526C292.962 20.8598 293.501 20.5751 294.1 20.3984C294.699 20.202 295.308 20.1038 295.927 20.1038C296.926 20.1038 297.824 20.2609 298.623 20.5751C299.442 20.8893 300.141 21.3802 300.72 22.0479V19.4853C300.72 18.5231 300.371 17.7867 299.672 17.2761C298.993 16.7459 298.124 16.4809 297.066 16.4809C295.368 16.4809 293.89 17.1387 292.632 18.4543L291.584 16.9227C293.122 15.3517 295.049 14.5663 297.365 14.5663C298.124 14.5663 298.843 14.6546 299.522 14.8314C300.201 15.0081 300.79 15.2928 301.289 15.6856C301.808 16.0587 302.218 16.5496 302.517 17.1583C302.817 17.7671 302.967 18.5034 302.967 19.3675V29.1465H300.72ZM296.736 27.9094C297.535 27.9094 298.284 27.7621 298.983 27.4676C299.702 27.173 300.281 26.7312 300.72 26.1421V23.4617C300.281 22.8726 299.702 22.4308 298.983 22.1362C298.284 21.8417 297.535 21.6944 296.736 21.6944C295.678 21.6944 294.819 21.989 294.16 22.5781C293.501 23.1475 293.171 23.8937 293.171 24.8166C293.171 25.7199 293.501 26.4661 294.16 27.0552C294.819 27.6247 295.678 27.9094 296.736 27.9094Z" fill="#7F7FC3"/>
<path d="M320.315 29.5C318.857 29.5 317.579 29.2938 316.481 28.8814C315.402 28.4494 314.504 27.88 313.785 27.173L314.893 25.7592C315.572 26.3876 316.371 26.8687 317.289 27.2025C318.228 27.5167 319.236 27.6738 320.315 27.6738C321.613 27.6738 322.641 27.448 323.4 26.9963C324.179 26.5447 324.568 25.9458 324.568 25.1996C324.568 24.7675 324.449 24.4043 324.209 24.1097C323.969 23.7955 323.64 23.5501 323.22 23.3733C322.821 23.177 322.342 23.0395 321.783 22.961C321.243 22.8824 320.654 22.8432 320.015 22.8432H316.78V21.0464H320.015C320.614 21.0464 321.174 20.9973 321.693 20.8991C322.212 20.8009 322.661 20.6537 323.041 20.4573C323.44 20.2609 323.75 20.0155 323.969 19.7209C324.189 19.4264 324.299 19.0729 324.299 18.6605C324.299 18.3267 324.189 18.0223 323.969 17.7474C323.75 17.4529 323.45 17.2074 323.071 17.011C322.711 16.8147 322.272 16.6674 321.753 16.5692C321.233 16.4514 320.674 16.3925 320.075 16.3925C318.058 16.3925 316.441 17.0012 315.223 18.2187L314.054 16.8638C314.733 16.1765 315.562 15.6267 316.541 15.2143C317.519 14.8019 318.667 14.5957 319.985 14.5957C320.964 14.5957 321.853 14.6841 322.651 14.8608C323.47 15.0179 324.169 15.2634 324.748 15.5972C325.347 15.9114 325.806 16.3041 326.126 16.7754C326.465 17.2467 326.635 17.7867 326.635 18.3954C326.635 18.9256 326.505 19.3969 326.246 19.8093C326.006 20.2217 325.697 20.5751 325.317 20.8697C324.938 21.1446 324.518 21.3704 324.059 21.5471C323.6 21.7042 323.161 21.8122 322.741 21.8711C323.161 21.9104 323.61 21.9988 324.089 22.1362C324.588 22.2737 325.048 22.4897 325.467 22.7842C325.886 23.0592 326.236 23.4126 326.515 23.8446C326.795 24.257 326.935 24.7577 326.935 25.3468C326.935 25.9359 326.785 26.4858 326.485 26.9963C326.186 27.5069 325.747 27.9487 325.167 28.3218C324.608 28.6949 323.919 28.9796 323.101 29.176C322.282 29.392 321.353 29.5 320.315 29.5Z" fill="#7F7FC3"/>
<path d="M330.579 29.1465V14.9197H332.826V20.8402H340.374V14.9197H342.621V29.1465H340.374V22.7842H332.826V29.1465H330.579Z" fill="#7F7FC3"/>
<path d="M356.153 29.1465V27.5265C354.935 28.8422 353.337 29.5 351.36 29.5C350.741 29.5 350.132 29.4018 349.533 29.2054C348.934 29.0091 348.395 28.7145 347.916 28.3218C347.436 27.9094 347.047 27.4087 346.747 26.8196C346.448 26.2305 346.298 25.553 346.298 24.7872C346.298 24.0017 346.448 23.3144 346.747 22.7253C347.047 22.1362 347.436 21.6453 347.916 21.2526C348.395 20.8598 348.934 20.5751 349.533 20.3984C350.132 20.202 350.741 20.1038 351.36 20.1038C352.359 20.1038 353.258 20.2609 354.056 20.5751C354.875 20.8893 355.574 21.3802 356.153 22.0479V19.4853C356.153 18.5231 355.804 17.7867 355.105 17.2761C354.426 16.7459 353.557 16.4809 352.499 16.4809C350.801 16.4809 349.324 17.1387 348.065 18.4543L347.017 16.9227C348.555 15.3517 350.482 14.5663 352.798 14.5663C353.557 14.5663 354.276 14.6546 354.955 14.8314C355.634 15.0081 356.223 15.2928 356.722 15.6856C357.242 16.0587 357.651 16.5496 357.95 17.1583C358.25 17.7671 358.4 18.5034 358.4 19.3675V29.1465H356.153ZM352.169 27.9094C352.968 27.9094 353.717 27.7621 354.416 27.4676C355.135 27.173 355.714 26.7312 356.153 26.1421V23.4617C355.714 22.8726 355.135 22.4308 354.416 22.1362C353.717 21.8417 352.968 21.6944 352.169 21.6944C351.111 21.6944 350.252 21.989 349.593 22.5781C348.934 23.1475 348.605 23.8937 348.605 24.8166C348.605 25.7199 348.934 26.4661 349.593 27.0552C350.252 27.6247 351.111 27.9094 352.169 27.9094Z" fill="#7F7FC3"/>
<path d="M362.903 29.1465V14.9197H365.15V20.8402H372.698V14.9197H374.945V29.1465H372.698V22.7842H365.15V29.1465H362.903Z" fill="#7F7FC3"/>
<path d="M379.431 29.1465V14.9197H381.677V25.7887L389.256 14.9197H391.472V29.1465H389.226V18.0714L381.587 29.1465H379.431Z" fill="#7F7FC3"/>
<path d="M395.958 29.1465V14.9197H398.205V25.7887L405.783 14.9197H408V29.1465H405.753V18.0714L398.115 29.1465H395.958ZM407.221 10.7077C406.622 11.5128 405.863 12.151 404.945 12.6222C404.046 13.0739 403.058 13.2997 401.979 13.2997C400.901 13.2997 399.902 13.0739 398.984 12.6222C398.085 12.151 397.326 11.5128 396.707 10.7077L397.816 9.7651C398.295 10.4131 398.884 10.9335 399.583 11.3262C400.282 11.6993 401.081 11.8859 401.979 11.8859C402.858 11.8859 403.647 11.6993 404.346 11.3262C405.064 10.9531 405.654 10.4327 406.113 9.7651L407.221 10.7077Z" fill="#7F7FC3"/>
</svg>
