<svg width="32" height="32" viewBox="0 0 32 32" fill="none" xmlns="http://www.w3.org/2000/svg">
    <circle cx="16" cy="16" r="16" fill="#55E2AF"/>
    <path d="M18.4004 19.8371L19.6412 18.5964C19.8072 18.4302 20.0184 18.3165 20.2485 18.2692C20.4786 18.222 20.7175 18.2433 20.9356 18.3305L22.4466 18.9353C22.6694 19.0244 22.8603 19.1782 22.9947 19.3769C23.1292 19.5755 23.2011 19.8099 23.2011 20.0498V22.7977C23.2014 22.961 23.1685 23.1227 23.1042 23.2728C23.04 23.423 22.9457 23.5584 22.8273 23.6709C22.7089 23.7833 22.5687 23.8705 22.4155 23.9269C22.2622 23.9833 22.099 24.0079 21.936 23.9991C11.3444 23.3399 9.20521 14.369 8.80807 10.9338C8.78884 10.7658 8.80537 10.5957 8.8566 10.4346C8.90782 10.2735 8.99257 10.1251 9.10528 9.9991C9.21798 9.87311 9.35607 9.77241 9.51048 9.70362C9.6649 9.63483 9.83212 9.59951 10.0012 9.59998H12.7003C12.9402 9.59997 13.1745 9.67184 13.3732 9.80631C13.5718 9.94077 13.7256 10.1317 13.8147 10.3544L14.419 11.8654C14.5062 12.0835 14.5275 12.3224 14.4803 12.5525C14.433 12.7826 14.3193 12.9938 14.1532 13.1599L12.9124 14.4006C12.9124 14.4006 13.6004 19.2372 18.4004 19.8371Z" fill="white"/>
</svg>
