<svg width="32" height="32" viewBox="0 0 32 32" fill="none" xmlns="http://www.w3.org/2000/svg">
    <circle cx="16" cy="16" r="16" fill="#7DA6FC"/>
    <path d="M15.9999 6.40002C10.7007 6.40002 6.3999 10.7008 6.3999 16C6.3999 21.2992 10.7007 25.6 15.9999 25.6H20.7999V23.68H15.9999C11.8335 23.68 8.3199 20.1664 8.3199 16C8.3199 11.8336 11.8335 8.32002 15.9999 8.32002C20.1663 8.32002 23.6799 11.8336 23.6799 16V17.3728C23.6799 18.1312 22.9983 18.88 22.2399 18.88C21.4815 18.88 20.7999 18.1312 20.7999 17.3728V16C20.7999 13.3504 18.6495 11.2 15.9999 11.2C13.3503 11.2 11.1999 13.3504 11.1999 16C11.1999 18.6496 13.3503 20.8 15.9999 20.8C17.3247 20.8 18.5343 20.2624 19.3983 19.3888C20.0223 20.2432 21.0975 20.8 22.2399 20.8C24.1311 20.8 25.5999 19.264 25.5999 17.3728V16C25.5999 10.7008 21.2991 6.40002 15.9999 6.40002ZM15.9999 18.88C14.4063 18.88 13.1199 17.5936 13.1199 16C13.1199 14.4064 14.4063 13.12 15.9999 13.12C17.5935 13.12 18.8799 14.4064 18.8799 16C18.8799 17.5936 17.5935 18.88 15.9999 18.88Z" fill="white"/>
</svg>
