<svg width="40" height="40" viewBox="0 0 40 40" fill="none" xmlns="http://www.w3.org/2000/svg">
    <path d="M20 0C8.95422 0 0 8.95422 0 20C0 31.0458 8.95422 40 20 40C31.0458 40 40 31.0458 40 20C40 8.95422 31.0458 0 20 0Z" fill="#4E69A2"/>
    <path fill-rule="evenodd" clip-rule="evenodd" d="M16.463 11.0184C13.2508 11.3143 10.8398 12.3949 9.27379 14.2404C8.32541 15.358 7.9358 16.4544 8.00854 17.8012C8.07973 19.1218 8.63204 20.2717 9.69672 21.3163C10.0884 21.7006 10.9732 22.3823 11.3965 22.626C11.5503 22.7144 11.5486 22.7328 11.3539 23.1183C11.1241 23.5734 10.8166 23.9703 10.161 24.6582C9.28498 25.5774 9.69767 25.9358 11.2119 25.5709C12.3608 25.294 13.4454 24.8619 14.4444 24.283L15.0856 23.9114L15.9034 24.0224C18.1616 24.3286 20.7159 23.9337 22.7471 22.964C25.3855 21.7046 26.8361 19.7772 26.8361 17.5311C26.8361 14.5644 24.0337 12.0184 19.8971 11.2271C19.0728 11.0694 17.1665 10.9535 16.463 11.0184ZM28.418 15.8874C28.6634 16.6899 28.7028 17.7943 28.5189 18.7132C28.2198 20.2078 27.5098 21.4333 26.2496 22.6302C24.1183 24.6543 20.9872 25.7786 17.4552 25.7879C16.3005 25.791 16.303 25.825 17.496 26.362C18.8316 26.9633 19.7785 27.196 21.5419 27.3564C22.4731 27.441 22.8513 27.4381 23.7943 27.339L24.9277 27.2199L25.559 27.5808C26.6302 28.1932 27.617 28.5843 28.8014 28.8659C30.2835 29.2182 30.6753 28.8643 29.819 27.9467C29.1229 27.2007 28.4717 26.2815 28.4717 26.045C28.4717 26.0099 28.7187 25.8247 29.0207 25.6335C30.1245 24.9346 31.1951 23.758 31.5938 22.8058C32.2686 21.194 32.098 19.4959 31.1164 18.0536C30.662 17.386 29.782 16.5377 29.0769 16.0875C28.4865 15.7104 28.3513 15.6694 28.418 15.8874Z" fill="white"/>
</svg>